<svg xmlns="http://www.w3.org/2000/svg" width="96" height="64" viewBox="0 0 96 64">
  <!-- Main hull -->
  <rect x="8" y="22" width="80" height="20" rx="8" fill="#3d7cba" stroke="#1e3f5a" stroke-width="2"/>
  <!-- Bridge/Command tower -->
  <rect x="12" y="16" width="16" height="12" rx="4" fill="#5ba0f2" stroke="#1e3f5a" stroke-width="1"/>
  <!-- Main battery forward -->
  <polygon points="8,32 4,28 4,36" fill="#ffd700" stroke="#cc9900" stroke-width="1"/>
  <!-- Heavy turrets -->
  <circle cx="25" cy="18" r="4" fill="#ff4444" stroke="#cc0000" stroke-width="1"/>
  <circle cx="45" cy="18" r="4" fill="#ff4444" stroke="#cc0000" stroke-width="1"/>
  <circle cx="65" cy="18" r="4" fill="#ff4444" stroke="#cc0000" stroke-width="1"/>
  <!-- Secondary armament -->
  <circle cx="30" cy="42" r="2.5" fill="#ff6b6b" stroke="#cc5555" stroke-width="1"/>
  <circle cx="50" cy="42" r="2.5" fill="#ff6b6b" stroke="#cc5555" stroke-width="1"/>
  <!-- Missile systems -->
  <rect x="35" y="14" width="6" height="8" fill="#32cd32" stroke="#228b22" stroke-width="1"/>
  <rect x="55" y="14" width="6" height="8" fill="#32cd32" stroke="#228b22" stroke-width="1"/>
  <!-- Engine stacks -->
  <rect x="75" y="24" width="10" height="16" rx="3" fill="#666666" stroke="#333333" stroke-width="1"/>
  <!-- Radar mast -->
  <line x1="20" y1="16" x2="20" y2="8" stroke="#87ceeb" stroke-width="2"/>
  <circle cx="20" cy="6" r="3" fill="#87ceeb" stroke="#2e5c8a" stroke-width="1"/>
  <!-- Armor plating details -->
  <rect x="15" y="26" width="65" height="2" fill="#2e5c8a"/>
  <rect x="15" y="36" width="65" height="2" fill="#2e5c8a"/>
</svg>
