<svg xmlns="http://www.w3.org/2000/svg" width="112" height="64" viewBox="0 0 112 64">
  <!-- Main hull -->
  <rect x="8" y="24" width="96" height="16" rx="10" fill="#2e5c8a" stroke="#1e3f5a" stroke-width="2"/>
  <!-- Flight deck -->
  <rect x="12" y="28" width="88" height="8" rx="4" fill="#4a90e2" stroke="#2e5c8a" stroke-width="1"/>
  <!-- Island/Control tower -->
  <rect x="85" y="16" width="15" height="16" rx="3" fill="#5ba0f2" stroke="#1e3f5a" stroke-width="1"/>
  <!-- Bridge windows -->
  <rect x="87" y="18" width="11" height="3" fill="#87ceeb"/>
  <rect x="87" y="22" width="11" height="3" fill="#87ceeb"/>
  <!-- Main mast -->
  <line x1="92" y1="16" x2="92" y2="8" stroke="#cccccc" stroke-width="3"/>
  <!-- Radar arrays -->
  <circle cx="92" cy="6" r="4" fill="#87ceeb" stroke="#2e5c8a" stroke-width="1"/>
  <!-- Flight deck markings -->
  <rect x="20" y="30" width="60" height="2" fill="#ffff00"/>
  <rect x="20" y="34" width="60" height="2" fill="#ffff00"/>
  <!-- Elevator platforms -->
  <rect x="25" y="28" width="8" height="8" fill="#666666" stroke="#333333" stroke-width="1"/>
  <rect x="65" y="28" width="8" height="8" fill="#666666" stroke="#333333" stroke-width="1"/>
  <!-- Defensive turrets -->
  <circle cx="15" cy="20" r="2" fill="#ff6b6b" stroke="#cc5555" stroke-width="1"/>
  <circle cx="97" cy="20" r="2" fill="#ff6b6b" stroke="#cc5555" stroke-width="1"/>
  <!-- Engine exhaust -->
  <ellipse cx="100" cy="32" rx="8" ry="4" fill="#ffa500" stroke="#cc8400" stroke-width="1"/>
  <!-- Hangar deck indicator -->
  <rect x="35" y="36" width="42" height="4" rx="2" fill="#3d7cba" stroke="#1e3f5a" stroke-width="1"/>
  <!-- Command bridge details -->
  <rect x="87" y="26" width="11" height="2" fill="#ffd700"/>
</svg>
